<?xml version="1.0" encoding="UTF-8"?>
<svg id="Layer1" xmlns="http://www.w3.org/2000/svg" version="1.1" viewBox="0 0 320 160">
    <rect fill="#f2c201" x="10" y="84.11" width="30" height="30"/>
    <rect fill="#3e3735" x="280" y="54.11" width="30" height="30"/>
    <rect fill="#57462e" x="280" y="84.11" width="30" height="30"/>
    <rect fill="#241b15" x="250" y="54.11" width="30" height="30"/>
    <rect fill="#65421e" x="250" y="84.11" width="30" height="30"/>
    <rect fill="#241b15" x="220" y="54.11" width="30" height="30"/>
    <rect fill="#432e07" x="220" y="84.11" width="30" height="30"/>
    <rect fill="#231f0c" x="190" y="54.11" width="30" height="30"/>
    <rect fill="#231f0c" x="160" y="54.11" width="30" height="30"/>
    <rect fill="#603f18" x="190" y="84.11" width="30" height="30"/>
    <rect fill="#452b06" x="160" y="84.11" width="30" height="30"/>
    <rect fill="#1e1814" x="130" y="54.11" width="30" height="30"/>
    <rect fill="#462c07" x="130" y="84.11" width="30" height="30"/>
    <rect fill="#221e0b" x="100" y="54.11" width="30" height="30"/>
    <rect fill="#62401a" x="100" y="84.11" width="30" height="30"/>
    <rect fill="#402d06" x="70" y="54.11" width="30" height="30"/>
    <rect fill="#432d02" x="70" y="84.11" width="30" height="30"/>
    <rect fill="#dddad2" x="40" y="54.11" width="30" height="30"/>
    <rect fill="#ebd86f" x="40" y="84.11" width="30" height="30"/>
    <rect fill="#f16901" x="10" y="54.11" width="30" height="30"/>
</svg>